<svg xmlns="http://www.w3.org/2000/svg" xmlns:xlink="http://www.w3.org/1999/xlink" width="500" zoomAndPan="magnify" viewBox="0 0 375 374.999991" height="500" preserveAspectRatio="xMidYMid meet" version="1.0"><defs><g/><clipPath id="552e72a74a"><path d="M 187.5 0 C 83.945312 0 0 83.945312 0 187.5 C 0 291.054688 83.945312 375 187.5 375 C 291.054688 375 375 291.054688 375 187.5 C 375 83.945312 291.054688 0 187.5 0 Z M 187.5 0 " clip-rule="nonzero"/></clipPath><clipPath id="7acaaab8e6"><path d="M 0 0 L 375 0 L 375 375 L 0 375 Z M 0 0 " clip-rule="nonzero"/></clipPath><clipPath id="c4de69da81"><path d="M 187.5 0 C 83.945312 0 0 83.945312 0 187.5 C 0 291.054688 83.945312 375 187.5 375 C 291.054688 375 375 291.054688 375 187.5 C 375 83.945312 291.054688 0 187.5 0 Z M 187.5 0 " clip-rule="nonzero"/></clipPath><clipPath id="2c2d21ec5d"><rect x="0" width="375" y="0" height="375"/></clipPath></defs><g clip-path="url(#552e72a74a)"><g transform="matrix(1, 0, 0, 1, 0, 0)"><g clip-path="url(#2c2d21ec5d)"><g clip-path="url(#7acaaab8e6)"><g clip-path="url(#c4de69da81)"><rect x="-82.5" width="540" fill="#101828" height="539.999987" y="-82.499998" fill-opacity="1"/></g></g></g></g></g><g fill="#ffffff" fill-opacity="1"><g transform="translate(92.900389, 264.975511)"><g><path d="M 148.40625 0 L 140.59375 -97.796875 L 139.59375 -97.796875 L 105.796875 -1 L 83.40625 -1 L 49.59375 -97.796875 L 48.59375 -97.796875 L 40.796875 0 L 3.203125 0 L 18 -165 L 58 -165 L 94.59375 -69.796875 L 131.203125 -165 L 171.203125 -165 L 186 0 Z M 148.40625 0 "/></g></g></g></svg>